<svg xmlns="http://www.w3.org/2000/svg" xmlns:xlink="http://www.w3.org/1999/xlink" width="407.106" height="245.542" version="1.1" viewBox="0 0 305.33 184.156"><defs><style type="text/css">*{stroke-linecap:butt;stroke-linejoin:round}</style></defs><g id="figure_1"><g id="patch_1"><path fill="none" d="M 0 184.15625 L 305.329712 184.15625 L 305.329712 -0 L 0 -0 z"/></g><g id="axes_1"><g id="patch_2"><path fill="#fff" d="M 42.620313 146.6 L 293.720313 146.6 L 293.720313 10.7 L 42.620313 10.7 z"/></g><g id="matplotlib.axis_1"><g id="xtick_1"><g id="line2d_1"><defs><path id="ma7b040b79e" stroke="#000" stroke-width=".8" d="M 0 0 L 0 3.5"/></defs><g><use x="54.034" y="146.6" stroke="#000" stroke-width=".8" xlink:href="#ma7b040b79e"/></g></g><g id="text_1"><defs><path id="DejaVuSans-2212" d="M 10.59375 35.5 L 73.1875 35.5 L 73.1875 27.203125 L 10.59375 27.203125 z"/><path id="DejaVuSans-31" d="M 12.40625 8.296875 L 28.515625 8.296875 L 28.515625 63.921875 L 10.984375 60.40625 L 10.984375 69.390625 L 28.421875 72.90625 L 38.28125 72.90625 L 38.28125 8.296875 L 54.390625 8.296875 L 54.390625 0 L 12.40625 0 z"/><path id="DejaVuSans-2e" d="M 10.6875 12.40625 L 21 12.40625 L 21 0 L 10.6875 0 z"/><path id="DejaVuSans-30" d="M 31.78125 66.40625 Q 24.171875 66.40625 20.328125 58.90625 Q 16.5 51.421875 16.5 36.375 Q 16.5 21.390625 20.328125 13.890625 Q 24.171875 6.390625 31.78125 6.390625 Q 39.453125 6.390625 43.28125 13.890625 Q 47.125 21.390625 47.125 36.375 Q 47.125 51.421875 43.28125 58.90625 Q 39.453125 66.40625 31.78125 66.40625 z M 31.78125 74.21875 Q 44.046875 74.21875 50.515625 64.515625 Q 56.984375 54.828125 56.984375 36.375 Q 56.984375 17.96875 50.515625 8.265625 Q 44.046875 -1.421875 31.78125 -1.421875 Q 19.53125 -1.421875 13.0625 8.265625 Q 6.59375 17.96875 6.59375 36.375 Q 6.59375 54.828125 13.0625 64.515625 Q 19.53125 74.21875 31.78125 74.21875 z"/></defs><g transform="translate(41.892543 161.198437)scale(0.1 -0.1)"><use xlink:href="#DejaVuSans-2212"/><use x="83.789" xlink:href="#DejaVuSans-31"/><use x="147.412" xlink:href="#DejaVuSans-2e"/><use x="179.199" xlink:href="#DejaVuSans-30"/></g></g></g><g id="xtick_2"><g id="line2d_2"><g><use x="93.391" y="146.6" stroke="#000" stroke-width=".8" xlink:href="#ma7b040b79e"/></g></g><g id="text_2"><defs><path id="DejaVuSans-35" d="M 10.796875 72.90625 L 49.515625 72.90625 L 49.515625 64.59375 L 19.828125 64.59375 L 19.828125 46.734375 Q 21.96875 47.46875 24.109375 47.828125 Q 26.265625 48.1875 28.421875 48.1875 Q 40.625 48.1875 47.75 41.5 Q 54.890625 34.8125 54.890625 23.390625 Q 54.890625 11.625 47.5625 5.09375 Q 40.234375 -1.421875 26.90625 -1.421875 Q 22.3125 -1.421875 17.546875 -0.640625 Q 12.796875 0.140625 7.71875 1.703125 L 7.71875 11.625 Q 12.109375 9.234375 16.796875 8.0625 Q 21.484375 6.890625 26.703125 6.890625 Q 35.15625 6.890625 40.078125 11.328125 Q 45.015625 15.765625 45.015625 23.390625 Q 45.015625 31 40.078125 35.4375 Q 35.15625 39.890625 26.703125 39.890625 Q 22.75 39.890625 18.8125 39.015625 Q 14.890625 38.140625 10.796875 36.28125 z"/></defs><g transform="translate(81.249909 161.198437)scale(0.1 -0.1)"><use xlink:href="#DejaVuSans-2212"/><use x="83.789" xlink:href="#DejaVuSans-30"/><use x="147.412" xlink:href="#DejaVuSans-2e"/><use x="179.199" xlink:href="#DejaVuSans-35"/></g></g></g><g id="xtick_3"><g id="line2d_3"><g><use x="132.749" y="146.6" stroke="#000" stroke-width=".8" xlink:href="#ma7b040b79e"/></g></g><g id="text_3"><g transform="translate(124.79712 161.198437)scale(0.1 -0.1)"><use xlink:href="#DejaVuSans-30"/><use x="63.623" xlink:href="#DejaVuSans-2e"/><use x="95.41" xlink:href="#DejaVuSans-30"/></g></g></g><g id="xtick_4"><g id="line2d_4"><g><use x="172.106" y="146.6" stroke="#000" stroke-width=".8" xlink:href="#ma7b040b79e"/></g></g><g id="text_4"><g transform="translate(164.154487 161.198437)scale(0.1 -0.1)"><use xlink:href="#DejaVuSans-30"/><use x="63.623" xlink:href="#DejaVuSans-2e"/><use x="95.41" xlink:href="#DejaVuSans-35"/></g></g></g><g id="xtick_5"><g id="line2d_5"><g><use x="211.463" y="146.6" stroke="#000" stroke-width=".8" xlink:href="#ma7b040b79e"/></g></g><g id="text_5"><g transform="translate(203.511853 161.198437)scale(0.1 -0.1)"><use xlink:href="#DejaVuSans-31"/><use x="63.623" xlink:href="#DejaVuSans-2e"/><use x="95.41" xlink:href="#DejaVuSans-30"/></g></g></g><g id="xtick_6"><g id="line2d_6"><g><use x="250.821" y="146.6" stroke="#000" stroke-width=".8" xlink:href="#ma7b040b79e"/></g></g><g id="text_6"><g transform="translate(242.86922 161.198437)scale(0.1 -0.1)"><use xlink:href="#DejaVuSans-31"/><use x="63.623" xlink:href="#DejaVuSans-2e"/><use x="95.41" xlink:href="#DejaVuSans-35"/></g></g></g><g id="xtick_7"><g id="line2d_7"><g><use x="290.178" y="146.6" stroke="#000" stroke-width=".8" xlink:href="#ma7b040b79e"/></g></g><g id="text_7"><defs><path id="DejaVuSans-32" d="M 19.1875 8.296875 L 53.609375 8.296875 L 53.609375 0 L 7.328125 0 L 7.328125 8.296875 Q 12.9375 14.109375 22.625 23.890625 Q 32.328125 33.6875 34.8125 36.53125 Q 39.546875 41.84375 41.421875 45.53125 Q 43.3125 49.21875 43.3125 52.78125 Q 43.3125 58.59375 39.234375 62.25 Q 35.15625 65.921875 28.609375 65.921875 Q 23.96875 65.921875 18.8125 64.3125 Q 13.671875 62.703125 7.8125 59.421875 L 7.8125 69.390625 Q 13.765625 71.78125 18.9375 73 Q 24.125 74.21875 28.421875 74.21875 Q 39.75 74.21875 46.484375 68.546875 Q 53.21875 62.890625 53.21875 53.421875 Q 53.21875 48.921875 51.53125 44.890625 Q 49.859375 40.875 45.40625 35.40625 Q 44.1875 33.984375 37.640625 27.21875 Q 31.109375 20.453125 19.1875 8.296875 z"/></defs><g transform="translate(282.226587 161.198437)scale(0.1 -0.1)"><use xlink:href="#DejaVuSans-32"/><use x="63.623" xlink:href="#DejaVuSans-2e"/><use x="95.41" xlink:href="#DejaVuSans-30"/></g></g></g><g id="text_8"><defs><path id="DejaVuSans-78" d="M 54.890625 54.6875 L 35.109375 28.078125 L 55.90625 0 L 45.3125 0 L 29.390625 21.484375 L 13.484375 0 L 2.875 0 L 24.125 28.609375 L 4.6875 54.6875 L 15.28125 54.6875 L 29.78125 35.203125 L 44.28125 54.6875 z"/></defs><g transform="translate(165.210938 174.876562)scale(0.1 -0.1)"><use xlink:href="#DejaVuSans-78"/></g></g></g><g id="matplotlib.axis_2"><g id="ytick_1"><g id="line2d_8"><defs><path id="m6ad6373cfb" stroke="#000" stroke-width=".8" d="M 0 0 L -3.5 0"/></defs><g><use x="42.62" y="138.424" stroke="#000" stroke-width=".8" xlink:href="#m6ad6373cfb"/></g></g><g id="text_9"><g transform="translate(20.878125 142.223072)scale(0.1 -0.1)"><use xlink:href="#DejaVuSans-2212"/><use x="83.789" xlink:href="#DejaVuSans-31"/></g></g></g><g id="ytick_2"><g id="line2d_9"><g><use x="42.62" y="95.123" stroke="#000" stroke-width=".8" xlink:href="#m6ad6373cfb"/></g></g><g id="text_10"><g transform="translate(29.257813 98.921946)scale(0.1 -0.1)"><use xlink:href="#DejaVuSans-30"/></g></g></g><g id="ytick_3"><g id="line2d_10"><g><use x="42.62" y="51.822" stroke="#000" stroke-width=".8" xlink:href="#m6ad6373cfb"/></g></g><g id="text_11"><g transform="translate(29.257813 55.62082)scale(0.1 -0.1)"><use xlink:href="#DejaVuSans-31"/></g></g></g><g id="text_12"><defs><path id="DejaVuSans-66" d="M 37.109375 75.984375 L 37.109375 68.5 L 28.515625 68.5 Q 23.6875 68.5 21.796875 66.546875 Q 19.921875 64.59375 19.921875 59.515625 L 19.921875 54.6875 L 34.71875 54.6875 L 34.71875 47.703125 L 19.921875 47.703125 L 19.921875 0 L 10.890625 0 L 10.890625 47.703125 L 2.296875 47.703125 L 2.296875 54.6875 L 10.890625 54.6875 L 10.890625 58.5 Q 10.890625 67.625 15.140625 71.796875 Q 19.390625 75.984375 28.609375 75.984375 z"/><path id="DejaVuSans-28" d="M 31 75.875 Q 24.46875 64.65625 21.28125 53.65625 Q 18.109375 42.671875 18.109375 31.390625 Q 18.109375 20.125 21.3125 9.0625 Q 24.515625 -2 31 -13.1875 L 23.1875 -13.1875 Q 15.875 -1.703125 12.234375 9.375 Q 8.59375 20.453125 8.59375 31.390625 Q 8.59375 42.28125 12.203125 53.3125 Q 15.828125 64.359375 23.1875 75.875 z"/><path id="DejaVuSans-29" d="M 8.015625 75.875 L 15.828125 75.875 Q 23.140625 64.359375 26.78125 53.3125 Q 30.421875 42.28125 30.421875 31.390625 Q 30.421875 20.453125 26.78125 9.375 Q 23.140625 -1.703125 15.828125 -13.1875 L 8.015625 -13.1875 Q 14.5 -2 17.703125 9.0625 Q 20.90625 20.125 20.90625 31.390625 Q 20.90625 42.671875 17.703125 53.65625 Q 14.5 64.65625 8.015625 75.875 z"/></defs><g transform="translate(14.798438 87.271094)rotate(-90)scale(0.1 -0.1)"><use xlink:href="#DejaVuSans-66"/><use x="35.205" xlink:href="#DejaVuSans-28"/><use x="74.219" xlink:href="#DejaVuSans-78"/><use x="133.398" xlink:href="#DejaVuSans-29"/></g></g></g><g id="line2d_11"><path fill="none" stroke="#1f77b4" stroke-linecap="square" stroke-width="1.5" d="M 54.033949 51.821601 L 61.905422 58.059091 L 69.776896 67.09765 L 77.648369 77.306493 L 85.519842 87.094257 L 93.391316 95.122727 L 101.262789 100.475041 L 109.134262 102.758256 L 117.005736 102.128997 L 124.877209 99.240909 L 132.748682 95.122727 L 140.620156 91.004545 L 148.491629 88.116458 L 156.363102 87.487198 L 164.234576 89.770414 L 172.106049 95.122727 L 179.977523 103.151198 L 187.848996 112.938962 L 195.720469 123.147805 L 203.591943 132.186364 L 211.463416 138.423853 L 219.334889 140.422727 L 227.206363 137.160344 L 235.077836 128.21002 L 242.949309 113.855825 L 250.820783 95.122727 L 258.692256 73.713473 L 266.563729 51.85473 L 274.435203 32.066303 L 282.306676 16.877273" clip-path="url(#p49ff48d3ed)"/></g><g id="patch_3"><path fill="none" stroke="#000" stroke-linecap="square" stroke-linejoin="miter" stroke-width=".8" d="M 42.620313 146.6 L 42.620313 10.7"/></g><g id="patch_4"><path fill="none" stroke="#000" stroke-linecap="square" stroke-linejoin="miter" stroke-width=".8" d="M 293.720313 146.6 L 293.720313 10.7"/></g><g id="patch_5"><path fill="none" stroke="#000" stroke-linecap="square" stroke-linejoin="miter" stroke-width=".8" d="M 42.620313 146.6 L 293.720313 146.6"/></g><g id="patch_6"><path fill="none" stroke="#000" stroke-linecap="square" stroke-linejoin="miter" stroke-width=".8" d="M 42.620313 10.7 L 293.720313 10.7"/></g><g id="patch_7"><path fill="none" stroke="#000" stroke-linecap="round" d="M 109.113525 126.824204 Q 109.1229 117.386339 109.131165 109.066508"/><path fill="none" stroke="#000" stroke-linecap="round" d="M 107.127192 113.064519 L 109.131165 109.066508 L 111.12719 113.068492"/></g><g id="text_13"><defs><path id="DejaVuSans-6c" d="M 9.421875 75.984375 L 18.40625 75.984375 L 18.40625 0 L 9.421875 0 z"/><path id="DejaVuSans-6f" d="M 30.609375 48.390625 Q 23.390625 48.390625 19.1875 42.75 Q 14.984375 37.109375 14.984375 27.296875 Q 14.984375 17.484375 19.15625 11.84375 Q 23.34375 6.203125 30.609375 6.203125 Q 37.796875 6.203125 41.984375 11.859375 Q 46.1875 17.53125 46.1875 27.296875 Q 46.1875 37.015625 41.984375 42.703125 Q 37.796875 48.390625 30.609375 48.390625 z M 30.609375 56 Q 42.328125 56 49.015625 48.375 Q 55.71875 40.765625 55.71875 27.296875 Q 55.71875 13.875 49.015625 6.21875 Q 42.328125 -1.421875 30.609375 -1.421875 Q 18.84375 -1.421875 12.171875 6.21875 Q 5.515625 13.875 5.515625 27.296875 Q 5.515625 40.765625 12.171875 48.375 Q 18.84375 56 30.609375 56 z"/><path id="DejaVuSans-63" d="M 48.78125 52.59375 L 48.78125 44.1875 Q 44.96875 46.296875 41.140625 47.34375 Q 37.3125 48.390625 33.40625 48.390625 Q 24.65625 48.390625 19.8125 42.84375 Q 14.984375 37.3125 14.984375 27.296875 Q 14.984375 17.28125 19.8125 11.734375 Q 24.65625 6.203125 33.40625 6.203125 Q 37.3125 6.203125 41.140625 7.25 Q 44.96875 8.296875 48.78125 10.40625 L 48.78125 2.09375 Q 45.015625 0.34375 40.984375 -0.53125 Q 36.96875 -1.421875 32.421875 -1.421875 Q 20.0625 -1.421875 12.78125 6.34375 Q 5.515625 14.109375 5.515625 27.296875 Q 5.515625 40.671875 12.859375 48.328125 Q 20.21875 56 33.015625 56 Q 37.15625 56 41.109375 55.140625 Q 45.0625 54.296875 48.78125 52.59375 z"/><path id="DejaVuSans-61" d="M 34.28125 27.484375 Q 23.390625 27.484375 19.1875 25 Q 14.984375 22.515625 14.984375 16.5 Q 14.984375 11.71875 18.140625 8.90625 Q 21.296875 6.109375 26.703125 6.109375 Q 34.1875 6.109375 38.703125 11.40625 Q 43.21875 16.703125 43.21875 25.484375 L 43.21875 27.484375 z M 52.203125 31.203125 L 52.203125 0 L 43.21875 0 L 43.21875 8.296875 Q 40.140625 3.328125 35.546875 0.953125 Q 30.953125 -1.421875 24.3125 -1.421875 Q 15.921875 -1.421875 10.953125 3.296875 Q 6 8.015625 6 15.921875 Q 6 25.140625 12.171875 29.828125 Q 18.359375 34.515625 30.609375 34.515625 L 43.21875 34.515625 L 43.21875 35.40625 Q 43.21875 41.609375 39.140625 45 Q 35.0625 48.390625 27.6875 48.390625 Q 23 48.390625 18.546875 47.265625 Q 14.109375 46.140625 10.015625 43.890625 L 10.015625 52.203125 Q 14.9375 54.109375 19.578125 55.046875 Q 24.21875 56 28.609375 56 Q 40.484375 56 46.34375 49.84375 Q 52.203125 43.703125 52.203125 31.203125 z"/><path id="DejaVuSans-20"/><path id="DejaVuSans-6d" d="M 52 44.1875 Q 55.375 50.25 60.0625 53.125 Q 64.75 56 71.09375 56 Q 79.640625 56 84.28125 50.015625 Q 88.921875 44.046875 88.921875 33.015625 L 88.921875 0 L 79.890625 0 L 79.890625 32.71875 Q 79.890625 40.578125 77.09375 44.375 Q 74.3125 48.1875 68.609375 48.1875 Q 61.625 48.1875 57.5625 43.546875 Q 53.515625 38.921875 53.515625 30.90625 L 53.515625 0 L 44.484375 0 L 44.484375 32.71875 Q 44.484375 40.625 41.703125 44.40625 Q 38.921875 48.1875 33.109375 48.1875 Q 26.21875 48.1875 22.15625 43.53125 Q 18.109375 38.875 18.109375 30.90625 L 18.109375 0 L 9.078125 0 L 9.078125 54.6875 L 18.109375 54.6875 L 18.109375 46.1875 Q 21.1875 51.21875 25.484375 53.609375 Q 29.78125 56 35.6875 56 Q 41.65625 56 45.828125 52.96875 Q 50 49.953125 52 44.1875 z"/><path id="DejaVuSans-69" d="M 9.421875 54.6875 L 18.40625 54.6875 L 18.40625 0 L 9.421875 0 z M 9.421875 75.984375 L 18.40625 75.984375 L 18.40625 64.59375 L 9.421875 64.59375 z"/><path id="DejaVuSans-6e" d="M 54.890625 33.015625 L 54.890625 0 L 45.90625 0 L 45.90625 32.71875 Q 45.90625 40.484375 42.875 44.328125 Q 39.84375 48.1875 33.796875 48.1875 Q 26.515625 48.1875 22.3125 43.546875 Q 18.109375 38.921875 18.109375 30.90625 L 18.109375 0 L 9.078125 0 L 9.078125 54.6875 L 18.109375 54.6875 L 18.109375 46.1875 Q 21.34375 51.125 25.703125 53.5625 Q 30.078125 56 35.796875 56 Q 45.21875 56 50.046875 50.171875 Q 54.890625 44.34375 54.890625 33.015625 z"/><path id="DejaVuSans-75" d="M 8.5 21.578125 L 8.5 54.6875 L 17.484375 54.6875 L 17.484375 21.921875 Q 17.484375 14.15625 20.5 10.265625 Q 23.53125 6.390625 29.59375 6.390625 Q 36.859375 6.390625 41.078125 11.03125 Q 45.3125 15.671875 45.3125 23.6875 L 45.3125 54.6875 L 54.296875 54.6875 L 54.296875 0 L 45.3125 0 L 45.3125 8.40625 Q 42.046875 3.421875 37.71875 1 Q 33.40625 -1.421875 27.6875 -1.421875 Q 18.265625 -1.421875 13.375 4.4375 Q 8.5 10.296875 8.5 21.578125 z M 31.109375 56 z"/></defs><g transform="translate(72.138338 138.423853)scale(0.1 -0.1)"><use xlink:href="#DejaVuSans-6c"/><use x="27.783" xlink:href="#DejaVuSans-6f"/><use x="88.965" xlink:href="#DejaVuSans-63"/><use x="143.945" xlink:href="#DejaVuSans-61"/><use x="205.225" xlink:href="#DejaVuSans-6c"/><use x="233.008" xlink:href="#DejaVuSans-20"/><use x="264.795" xlink:href="#DejaVuSans-6d"/><use x="362.207" xlink:href="#DejaVuSans-69"/><use x="389.99" xlink:href="#DejaVuSans-6e"/><use x="453.369" xlink:href="#DejaVuSans-69"/><use x="481.152" xlink:href="#DejaVuSans-6d"/><use x="578.564" xlink:href="#DejaVuSans-75"/><use x="641.943" xlink:href="#DejaVuSans-6d"/></g></g><g id="patch_8"><path fill="none" stroke="#000" stroke-linecap="round" d="M 220.407145 66.562567 Q 219.88643 100.408884 219.382913 133.137299"/><path fill="none" stroke="#000" stroke-linecap="round" d="M 221.444207 129.168538 L 219.382913 133.137299 L 217.444681 129.107006"/></g><g id="text_14"><defs><path id="DejaVuSans-67" d="M 45.40625 27.984375 Q 45.40625 37.75 41.375 43.109375 Q 37.359375 48.484375 30.078125 48.484375 Q 22.859375 48.484375 18.828125 43.109375 Q 14.796875 37.75 14.796875 27.984375 Q 14.796875 18.265625 18.828125 12.890625 Q 22.859375 7.515625 30.078125 7.515625 Q 37.359375 7.515625 41.375 12.890625 Q 45.40625 18.265625 45.40625 27.984375 z M 54.390625 6.78125 Q 54.390625 -7.171875 48.1875 -13.984375 Q 42 -20.796875 29.203125 -20.796875 Q 24.46875 -20.796875 20.265625 -20.09375 Q 16.0625 -19.390625 12.109375 -17.921875 L 12.109375 -9.1875 Q 16.0625 -11.328125 19.921875 -12.34375 Q 23.78125 -13.375 27.78125 -13.375 Q 36.625 -13.375 41.015625 -8.765625 Q 45.40625 -4.15625 45.40625 5.171875 L 45.40625 9.625 Q 42.625 4.78125 38.28125 2.390625 Q 33.9375 0 27.875 0 Q 17.828125 0 11.671875 7.65625 Q 5.515625 15.328125 5.515625 27.984375 Q 5.515625 40.671875 11.671875 48.328125 Q 17.828125 56 27.875 56 Q 33.9375 56 38.28125 53.609375 Q 42.625 51.21875 45.40625 46.390625 L 45.40625 54.6875 L 54.390625 54.6875 z"/><path id="DejaVuSans-62" d="M 48.6875 27.296875 Q 48.6875 37.203125 44.609375 42.84375 Q 40.53125 48.484375 33.40625 48.484375 Q 26.265625 48.484375 22.1875 42.84375 Q 18.109375 37.203125 18.109375 27.296875 Q 18.109375 17.390625 22.1875 11.75 Q 26.265625 6.109375 33.40625 6.109375 Q 40.53125 6.109375 44.609375 11.75 Q 48.6875 17.390625 48.6875 27.296875 z M 18.109375 46.390625 Q 20.953125 51.265625 25.265625 53.625 Q 29.59375 56 35.59375 56 Q 45.5625 56 51.78125 48.09375 Q 58.015625 40.1875 58.015625 27.296875 Q 58.015625 14.40625 51.78125 6.484375 Q 45.5625 -1.421875 35.59375 -1.421875 Q 29.59375 -1.421875 25.265625 0.953125 Q 20.953125 3.328125 18.109375 8.203125 L 18.109375 0 L 9.078125 0 L 9.078125 75.984375 L 18.109375 75.984375 z"/></defs><g transform="translate(179.977523 60.481826)scale(0.1 -0.1)"><use xlink:href="#DejaVuSans-67"/><use x="63.477" xlink:href="#DejaVuSans-6c"/><use x="91.26" xlink:href="#DejaVuSans-6f"/><use x="152.441" xlink:href="#DejaVuSans-62"/><use x="215.918" xlink:href="#DejaVuSans-61"/><use x="277.197" xlink:href="#DejaVuSans-6c"/><use x="304.98" xlink:href="#DejaVuSans-20"/><use x="336.768" xlink:href="#DejaVuSans-6d"/><use x="434.18" xlink:href="#DejaVuSans-69"/><use x="461.963" xlink:href="#DejaVuSans-6e"/><use x="525.342" xlink:href="#DejaVuSans-69"/><use x="553.125" xlink:href="#DejaVuSans-6d"/><use x="650.537" xlink:href="#DejaVuSans-75"/><use x="713.916" xlink:href="#DejaVuSans-6d"/></g></g></g></g><defs><clipPath id="p49ff48d3ed"><rect width="251.1" height="135.9" x="42.62" y="10.7"/></clipPath></defs></svg>